<svg fill="#CB9D48" xmlns="http://www.w3.org/2000/svg" xmlns:xlink="http://www.w3.org/1999/xlink" version="1.1" x="0px" y="0px" viewBox="0 0 32 32" enable-background="new 0 0 32 32" xml:space="preserve"><g><path d="M22.6,1.3c0-0.2-0.1-0.5-0.3-0.6c-0.2-0.1-0.5-0.2-0.7-0.1l-9.8,3.3h10.8V1.3z"></path><path d="M24.6,5.4H7.4C7,5.4,6.6,5.7,6.6,6.2v24.6c0,0.4,0.3,0.8,0.8,0.8h17.2c0.4,0,0.8-0.3,0.8-0.8V6.2C25.4,5.7,25,5.4,24.6,5.4   z M20,27.2H12c-0.4,0-0.8-0.3-0.8-0.8c0-0.4,0.3-0.8,0.8-0.8H20c0.4,0,0.8,0.3,0.8,0.8C20.8,26.9,20.5,27.2,20,27.2z M16,21.1   c-3,0-5.4-2.4-5.4-5.4c0-3,2.4-5.4,5.4-5.4s5.4,2.4,5.4,5.4C21.4,18.6,19,21.1,16,21.1z"></path></g></svg>