<?xml version="1.0" encoding="UTF-8" standalone="no"?>
<!DOCTYPE svg PUBLIC "-//W3C//DTD SVG 1.1//EN" "http://www.w3.org/Graphics/SVG/1.1/DTD/svg11.dtd">
<svg width="100%" height="100%" viewBox="0 0 160 50" version="1.1" xmlns="http://www.w3.org/2000/svg" xmlns:xlink="http://www.w3.org/1999/xlink" xml:space="preserve" style="fill-rule:evenodd;clip-rule:evenodd;stroke-linejoin:round;stroke-miterlimit:1.41421;">
    <g transform="matrix(1.25018,0,0,1.25018,-30.8769,-51.3547)">
        <g transform="matrix(1,0,0,1,27,69)">
            <path d="M5.199,-7.466C4.964,-7.153 4.834,-6.808 4.808,-6.43C4.782,-6.052 4.743,-5.681 4.691,-5.316C4.639,-5.134 4.593,-4.958 4.554,-4.788C4.515,-4.619 4.469,-4.43 4.417,-4.222C4.313,-3.935 4.169,-3.635 3.987,-3.323C3.883,-3.062 3.766,-2.88 3.635,-2.775C3.349,-2.619 3.153,-2.41 3.049,-2.15C2.945,-1.889 2.867,-1.603 2.814,-1.29C2.788,-0.717 2.619,-0.169 2.306,0.352C2.202,0.508 2.169,0.71 2.209,0.958C2.248,1.205 2.267,1.433 2.267,1.642C2.293,1.746 2.326,1.837 2.365,1.915C2.404,1.994 2.437,2.085 2.463,2.189C2.515,2.371 2.554,2.547 2.58,2.717C2.606,2.886 2.528,3.049 2.345,3.205C1.981,3.544 1.564,3.635 1.094,3.479C1.042,3.166 0.997,2.847 0.958,2.521C0.919,2.195 0.899,1.876 0.899,1.564C0.847,0.782 0.814,0 0.801,-0.782C0.788,-1.564 0.769,-2.332 0.743,-3.088C0.743,-3.661 0.749,-4.228 0.762,-4.788C0.775,-5.349 0.769,-5.915 0.743,-6.489C0.717,-7.036 0.684,-7.583 0.645,-8.131C0.606,-8.678 0.56,-9.225 0.508,-9.772C0.456,-10.372 0.417,-10.971 0.391,-11.57C0.365,-12.17 0.339,-12.769 0.313,-13.368C0.287,-13.655 0.293,-13.935 0.332,-14.209C0.371,-14.482 0.378,-14.763 0.352,-15.049C0.352,-15.258 0.326,-15.473 0.274,-15.694C0.222,-15.916 0.195,-16.144 0.195,-16.378C0.169,-16.821 0.156,-17.271 0.156,-17.727C0.156,-18.183 0.13,-18.645 0.078,-19.115C0.052,-19.453 0.026,-19.786 0,-20.111C-0.026,-20.437 -0.065,-20.769 -0.117,-21.108C-0.169,-21.343 -0.274,-21.538 -0.43,-21.694C-0.508,-21.825 -0.547,-21.968 -0.547,-22.124C-0.547,-22.281 -0.482,-22.411 -0.352,-22.515C-0.039,-22.776 0.28,-23.03 0.606,-23.277C0.932,-23.525 1.29,-23.714 1.681,-23.844C1.889,-23.896 2.117,-23.922 2.365,-23.922C2.612,-23.922 2.853,-23.909 3.088,-23.883C3.27,-23.831 3.446,-23.773 3.616,-23.707C3.785,-23.642 3.948,-23.571 4.104,-23.492C4.443,-23.31 4.691,-23.069 4.847,-22.769C5.003,-22.47 5.121,-22.15 5.199,-21.812C5.381,-20.795 5.538,-19.779 5.668,-18.763C5.694,-18.398 5.7,-18.04 5.687,-17.688C5.674,-17.336 5.668,-16.952 5.668,-16.535C5.72,-16.587 5.772,-16.626 5.824,-16.652C5.876,-16.678 5.915,-16.704 5.942,-16.73C6.489,-17.642 7.134,-18.45 7.876,-19.154C8.619,-19.857 9.368,-20.548 10.124,-21.225C10.411,-21.486 10.697,-21.727 10.984,-21.948C11.271,-22.17 11.557,-22.398 11.844,-22.633C12.626,-23.336 13.538,-23.571 14.58,-23.336C14.945,-23.258 15.29,-23.167 15.616,-23.063C15.942,-22.958 16.261,-22.828 16.574,-22.672C17.017,-22.463 17.369,-22.183 17.629,-21.831C17.89,-21.479 18.072,-21.069 18.176,-20.6C18.229,-20.287 18.281,-19.968 18.333,-19.642C18.385,-19.316 18.411,-18.997 18.411,-18.685C18.437,-18.32 18.43,-17.968 18.391,-17.629C18.352,-17.29 18.307,-16.939 18.255,-16.574C18.124,-15.74 17.909,-14.958 17.61,-14.228C17.31,-13.499 16.952,-12.782 16.535,-12.079C16.3,-11.662 16.02,-11.303 15.694,-11.004C15.368,-10.704 15.023,-10.411 14.658,-10.124C14.372,-9.916 14.072,-9.72 13.759,-9.538C13.447,-9.355 13.147,-9.173 12.86,-8.99C12.704,-8.912 12.535,-8.854 12.352,-8.815C12.17,-8.775 11.987,-8.73 11.805,-8.678C11.466,-8.626 11.134,-8.567 10.808,-8.502C10.482,-8.437 10.137,-8.365 9.772,-8.287C9.616,-8.261 9.453,-8.254 9.284,-8.267C9.114,-8.28 8.977,-8.183 8.873,-7.974C8.873,-7.948 8.834,-7.935 8.756,-7.935C8.104,-7.935 7.596,-7.701 7.231,-7.231C7.622,-6.815 8.013,-6.404 8.404,-6C8.795,-5.596 9.173,-5.173 9.538,-4.73C10.189,-3.948 10.899,-3.231 11.668,-2.58C12.437,-1.928 13.199,-1.277 13.955,-0.625C14.372,-0.261 14.808,0.059 15.264,0.332C15.72,0.606 16.17,0.886 16.613,1.173C16.899,1.355 17.16,1.544 17.395,1.739C17.629,1.935 17.89,2.111 18.176,2.267C18.854,2.684 19.525,3.088 20.189,3.479C20.854,3.87 21.577,4.169 22.359,4.378C22.75,4.508 23.128,4.645 23.492,4.788C23.857,4.932 24.222,5.056 24.587,5.16C25.16,5.29 25.714,5.323 26.248,5.257C26.782,5.192 27.284,4.977 27.753,4.613C28.014,4.404 28.235,4.163 28.418,3.889C28.6,3.616 28.796,3.349 29.004,3.088C29.056,3.036 29.115,2.99 29.18,2.951C29.245,2.912 29.304,2.867 29.356,2.814C29.486,2.762 29.564,2.756 29.59,2.795C29.616,2.834 29.642,2.906 29.669,3.01C29.721,3.297 29.799,3.492 29.903,3.596C30.138,3.831 30.268,3.994 30.294,4.085C30.32,4.176 30.255,4.365 30.099,4.652C30.333,4.938 30.398,5.271 30.294,5.648C30.19,6.026 29.968,6.319 29.629,6.528C28.691,7.101 27.649,7.284 26.502,7.075C26.372,7.049 26.255,7.043 26.151,7.056C26.046,7.069 25.929,7.075 25.799,7.075C24.496,7.075 23.297,6.867 22.203,6.45C21.629,6.215 21.069,5.961 20.522,5.687C19.974,5.414 19.427,5.134 18.88,4.847C18.072,4.43 17.323,3.948 16.632,3.401C15.942,2.853 15.258,2.28 14.58,1.681C14.137,1.29 13.701,0.919 13.271,0.567C12.841,0.215 12.417,-0.169 12,-0.586C11.245,-1.342 10.502,-2.111 9.772,-2.893C9.043,-3.674 8.3,-4.469 7.544,-5.277C7.362,-5.459 7.199,-5.648 7.056,-5.844C6.912,-6.039 6.762,-6.241 6.606,-6.45C6.476,-6.58 6.358,-6.723 6.254,-6.88C6.15,-7.036 5.968,-7.088 5.707,-7.036C5.629,-7.036 5.544,-7.088 5.453,-7.192C5.362,-7.297 5.277,-7.388 5.199,-7.466ZM14.346,-21.343C14.32,-21.343 14.294,-21.356 14.267,-21.382C14.267,-21.408 14.261,-21.434 14.248,-21.46C14.235,-21.486 14.228,-21.512 14.228,-21.538C14.228,-21.955 14.157,-22.216 14.013,-22.32C13.87,-22.424 13.616,-22.398 13.251,-22.242C11.896,-21.642 10.658,-20.782 9.538,-19.662C8.782,-18.906 8.091,-18.105 7.466,-17.258C6.841,-16.411 6.306,-15.492 5.863,-14.502C5.811,-14.346 5.785,-14.215 5.785,-14.111C5.785,-13.824 5.792,-13.525 5.805,-13.212C5.818,-12.899 5.798,-12.587 5.746,-12.274C5.694,-11.831 5.635,-11.401 5.57,-10.984C5.505,-10.567 5.446,-10.137 5.394,-9.694C5.316,-9.303 5.459,-8.99 5.824,-8.756C5.955,-8.704 6.033,-8.639 6.059,-8.56C6.137,-8.404 6.215,-8.339 6.293,-8.365C6.372,-8.391 6.45,-8.456 6.528,-8.56C6.762,-8.795 7.003,-9.03 7.251,-9.264C7.499,-9.499 7.727,-9.746 7.935,-10.007C8.508,-10.606 9.075,-11.219 9.635,-11.844C10.196,-12.469 10.749,-13.082 11.297,-13.681C11.74,-14.176 12.131,-14.697 12.469,-15.245C12.808,-15.792 13.056,-16.391 13.212,-17.043C13.264,-17.251 13.329,-17.453 13.408,-17.649C13.486,-17.844 13.551,-18.046 13.603,-18.255C13.733,-18.776 13.857,-19.29 13.974,-19.799C14.092,-20.307 14.215,-20.821 14.346,-21.343Z" style="fill:rgb(255,253,247);fill-rule:nonzero;"/>
            <path d="M16.456,-4.534L16.691,-5.824C16.691,-5.928 16.698,-6.026 16.711,-6.117C16.724,-6.209 16.743,-6.319 16.769,-6.45L16.926,-6.762C16.978,-7.049 17.043,-7.31 17.121,-7.544C17.199,-7.779 17.29,-8.013 17.395,-8.248C17.577,-8.717 17.812,-9.199 18.098,-9.694C18.176,-9.824 18.261,-9.961 18.352,-10.105C18.443,-10.248 18.528,-10.385 18.606,-10.515C18.658,-10.593 18.711,-10.671 18.763,-10.749C18.815,-10.828 18.867,-10.893 18.919,-10.945C18.997,-11.023 19.069,-11.108 19.134,-11.199C19.199,-11.29 19.271,-11.362 19.349,-11.414C19.505,-11.596 19.662,-11.772 19.818,-11.942C19.974,-12.111 20.144,-12.261 20.326,-12.391C20.457,-12.522 20.593,-12.619 20.737,-12.684C20.88,-12.75 21.017,-12.821 21.147,-12.899C21.251,-12.951 21.33,-13.004 21.382,-13.056C21.512,-13.212 21.662,-13.323 21.831,-13.388C22.001,-13.453 22.176,-13.512 22.359,-13.564C22.489,-13.616 22.62,-13.655 22.75,-13.681C22.88,-13.707 23.036,-13.694 23.219,-13.642C23.349,-13.616 23.473,-13.596 23.59,-13.583C23.707,-13.57 23.831,-13.525 23.962,-13.447C24.248,-13.238 24.444,-13.004 24.548,-12.743C24.574,-12.613 24.639,-12.443 24.743,-12.235C24.795,-12.105 24.854,-11.994 24.919,-11.903C24.984,-11.811 25.043,-11.701 25.095,-11.57C25.095,-11.544 25.102,-11.518 25.115,-11.492C25.128,-11.466 25.134,-11.44 25.134,-11.414C25.108,-11.284 25.089,-11.147 25.076,-11.004C25.063,-10.86 25.03,-10.723 24.978,-10.593C24.978,-10.411 24.939,-10.241 24.861,-10.085C24.861,-10.059 24.848,-10.033 24.822,-10.007C24.795,-9.981 24.769,-9.942 24.743,-9.89C24.691,-9.811 24.646,-9.733 24.607,-9.655C24.567,-9.577 24.522,-9.499 24.47,-9.42C24.392,-9.29 24.32,-9.16 24.255,-9.03C24.19,-8.899 24.118,-8.769 24.04,-8.639C24.04,-8.639 24.001,-8.6 23.922,-8.521C23.714,-8.417 23.584,-8.326 23.532,-8.248C23.167,-7.701 22.737,-7.231 22.242,-6.841C22.033,-6.658 21.818,-6.489 21.597,-6.332C21.375,-6.176 21.16,-6.007 20.952,-5.824C20.769,-5.694 20.587,-5.577 20.404,-5.472C20.222,-5.368 20.04,-5.251 19.857,-5.121C19.675,-5.042 19.558,-4.86 19.505,-4.573C19.427,-4.339 19.356,-4.091 19.29,-3.831C19.225,-3.57 19.167,-3.31 19.115,-3.049C19.062,-2.84 19.023,-2.639 18.997,-2.443C18.971,-2.248 18.906,-2.059 18.802,-1.876C18.802,-1.85 18.808,-1.824 18.821,-1.798C18.834,-1.772 18.841,-1.746 18.841,-1.72C19.023,-1.511 19.212,-1.329 19.408,-1.173C19.603,-1.016 19.857,-0.925 20.17,-0.899C20.378,-0.873 20.587,-0.873 20.795,-0.899C21.004,-0.925 21.212,-0.964 21.421,-1.016C21.629,-1.042 21.831,-1.108 22.027,-1.212C22.222,-1.316 22.411,-1.433 22.593,-1.564C22.802,-1.72 23.017,-1.863 23.238,-1.994C23.46,-2.124 23.675,-2.28 23.883,-2.463C24.196,-2.697 24.489,-2.945 24.763,-3.205C25.037,-3.466 25.278,-3.766 25.486,-4.104C25.642,-4.339 25.812,-4.573 25.994,-4.808C26.177,-5.042 26.346,-5.277 26.502,-5.512C26.763,-5.928 27.017,-6.345 27.265,-6.762C27.512,-7.179 27.766,-7.609 28.027,-8.052L28.496,-8.834C28.574,-8.912 28.652,-8.925 28.73,-8.873C28.835,-8.821 28.9,-8.73 28.926,-8.6C28.952,-8.469 28.939,-8.339 28.887,-8.209C28.835,-8 28.737,-7.844 28.594,-7.74C28.45,-7.635 28.313,-7.505 28.183,-7.349C28.053,-7.218 27.988,-7.049 27.988,-6.841C27.936,-6.684 27.883,-6.541 27.831,-6.411L27.597,-5.824C27.545,-5.694 27.48,-5.616 27.401,-5.59C27.271,-5.459 27.154,-5.336 27.05,-5.218C26.945,-5.101 26.867,-4.938 26.815,-4.73C26.789,-4.652 26.75,-4.58 26.698,-4.515C26.646,-4.45 26.594,-4.378 26.541,-4.3C26.411,-4.065 26.268,-3.837 26.111,-3.616C25.955,-3.394 25.773,-3.192 25.564,-3.01C25.46,-2.906 25.375,-2.801 25.31,-2.697C25.245,-2.593 25.186,-2.476 25.134,-2.345C25.004,-2.111 24.861,-1.896 24.704,-1.7C24.548,-1.505 24.365,-1.342 24.157,-1.212C24.027,-1.134 23.903,-1.062 23.786,-0.997C23.668,-0.932 23.545,-0.86 23.414,-0.782C23.31,-0.73 23.219,-0.671 23.141,-0.606C23.063,-0.541 22.971,-0.482 22.867,-0.43C22.737,-0.378 22.62,-0.339 22.515,-0.313C22.411,-0.287 22.294,-0.248 22.163,-0.195C21.955,-0.143 21.812,-0.117 21.733,-0.117C21.603,-0.091 21.486,-0.078 21.382,-0.078C21.277,-0.078 21.16,-0.065 21.03,-0.039C20.665,0.013 20.32,0 19.994,-0.078C19.668,-0.156 19.336,-0.261 18.997,-0.391C18.711,-0.521 18.45,-0.697 18.215,-0.919C17.981,-1.14 17.759,-1.381 17.551,-1.642C17.369,-1.85 17.199,-2.098 17.043,-2.384C16.886,-2.723 16.75,-3.068 16.632,-3.42C16.515,-3.772 16.469,-4.13 16.496,-4.495C16.469,-4.495 16.456,-4.508 16.456,-4.534ZM23.649,-11.336C23.597,-11.284 23.545,-11.245 23.492,-11.219C23.44,-11.192 23.388,-11.153 23.336,-11.101C23.206,-11.023 23.082,-10.945 22.965,-10.867C22.848,-10.789 22.724,-10.71 22.593,-10.632C22.541,-10.58 22.489,-10.548 22.437,-10.534C22.385,-10.521 22.346,-10.489 22.32,-10.437C22.19,-10.228 22.066,-10.033 21.948,-9.85C21.831,-9.668 21.707,-9.486 21.577,-9.303C21.525,-9.225 21.492,-9.153 21.479,-9.088C21.466,-9.023 21.434,-8.964 21.382,-8.912C21.33,-8.782 21.264,-8.671 21.186,-8.58C21.108,-8.489 21.043,-8.378 20.991,-8.248C20.939,-8.117 20.893,-7.981 20.854,-7.837C20.815,-7.694 20.769,-7.557 20.717,-7.427C20.535,-7.01 20.365,-6.554 20.209,-6.059C20.209,-6.059 20.261,-6.085 20.365,-6.137C20.574,-6.267 20.776,-6.398 20.971,-6.528C21.167,-6.658 21.356,-6.801 21.538,-6.958C21.799,-7.166 22.053,-7.388 22.3,-7.622C22.548,-7.857 22.789,-8.104 23.023,-8.365C23.31,-8.652 23.525,-8.977 23.668,-9.342C23.812,-9.707 23.949,-10.085 24.079,-10.476C24.131,-10.58 24.157,-10.678 24.157,-10.769C24.157,-10.86 24.17,-10.971 24.196,-11.101C23.935,-11.023 23.753,-11.101 23.649,-11.336Z" style="fill:rgb(255,253,247);fill-rule:nonzero;"/>
        </g>
        <g transform="matrix(1,0,0,1,55.34,69)">
            <path d="M5.512,-12.938C5.355,-12.469 5.199,-12.039 5.042,-11.649L4.573,-10.476C4.495,-10.267 4.417,-10.065 4.339,-9.87C4.261,-9.675 4.196,-9.473 4.143,-9.264C4.091,-9.003 4.02,-8.762 3.928,-8.541C3.837,-8.319 3.74,-8.091 3.635,-7.857C3.531,-7.648 3.42,-7.446 3.303,-7.251C3.186,-7.056 3.075,-6.854 2.971,-6.645C2.867,-6.437 2.762,-6.222 2.658,-6C2.554,-5.779 2.463,-5.564 2.384,-5.355C2.228,-4.86 2.156,-4.358 2.169,-3.85C2.182,-3.342 2.241,-2.84 2.345,-2.345C2.397,-1.954 2.528,-1.583 2.736,-1.231C2.945,-0.88 3.244,-0.599 3.635,-0.391C3.687,-0.365 3.74,-0.352 3.792,-0.352C3.844,-0.352 3.896,-0.339 3.948,-0.313C4.417,-0.235 4.899,-0.274 5.394,-0.43C5.707,-0.534 5.981,-0.678 6.215,-0.86C6.45,-1.042 6.684,-1.238 6.919,-1.446C7.101,-1.629 7.271,-1.824 7.427,-2.033C7.583,-2.241 7.727,-2.45 7.857,-2.658C8.144,-3.049 8.411,-3.44 8.658,-3.831C8.906,-4.222 9.16,-4.626 9.42,-5.042C9.707,-5.433 9.961,-5.798 10.183,-6.137C10.404,-6.476 10.593,-6.88 10.749,-7.349C10.776,-7.427 10.834,-7.538 10.925,-7.681C11.017,-7.824 11.062,-7.935 11.062,-8.013C11.062,-8.091 11.108,-8.144 11.199,-8.17C11.29,-8.196 11.401,-8.209 11.531,-8.209C11.714,-8.209 11.792,-8.104 11.766,-7.896C11.714,-7.531 11.629,-7.251 11.512,-7.056C11.394,-6.86 11.245,-6.541 11.062,-6.098C10.906,-5.942 10.782,-5.772 10.691,-5.59C10.6,-5.407 10.489,-5.225 10.359,-5.042C10.228,-4.86 10.098,-4.684 9.968,-4.515C9.837,-4.345 9.707,-4.169 9.577,-3.987C9.499,-3.909 9.44,-3.818 9.401,-3.713C9.362,-3.609 9.303,-3.518 9.225,-3.44C9.095,-3.257 8.964,-3.095 8.834,-2.951C8.704,-2.808 8.56,-2.658 8.404,-2.502C8.144,-2.241 8,-1.954 7.974,-1.642C7.922,-1.303 7.792,-1.029 7.583,-0.821C7.375,-0.586 7.147,-0.358 6.899,-0.137C6.652,0.085 6.385,0.261 6.098,0.391C5.889,0.495 5.681,0.547 5.472,0.547C5.264,0.547 5.056,0.534 4.847,0.508C4.639,0.482 4.437,0.456 4.241,0.43C4.046,0.404 3.844,0.391 3.635,0.391C3.27,0.339 2.945,0.228 2.658,0.059C2.371,-0.111 2.085,-0.3 1.798,-0.508C1.329,-0.873 0.86,-1.329 0.391,-1.876C0.261,-2.033 0.15,-2.222 0.059,-2.443C-0.033,-2.665 -0.104,-2.88 -0.156,-3.088C-0.261,-3.427 -0.345,-3.759 -0.41,-4.085C-0.476,-4.411 -0.521,-4.756 -0.547,-5.121C-0.599,-5.407 -0.612,-5.687 -0.586,-5.961C-0.56,-6.235 -0.534,-6.515 -0.508,-6.801C-0.508,-6.984 -0.495,-7.166 -0.469,-7.349C-0.443,-7.531 -0.404,-7.714 -0.352,-7.896C-0.326,-8.052 -0.3,-8.209 -0.274,-8.365C-0.248,-8.521 -0.208,-8.678 -0.156,-8.834C-0.052,-9.121 0.039,-9.414 0.117,-9.714C0.195,-10.013 0.3,-10.306 0.43,-10.593C0.508,-10.802 0.599,-11.004 0.704,-11.199C0.808,-11.394 0.925,-11.596 1.055,-11.805C1.186,-12.013 1.303,-12.222 1.407,-12.43C1.511,-12.639 1.655,-12.834 1.837,-13.017C1.994,-13.173 2.137,-13.336 2.267,-13.505C2.397,-13.675 2.541,-13.838 2.697,-13.994C2.749,-14.046 2.827,-14.098 2.932,-14.15C3.036,-14.202 3.101,-14.267 3.127,-14.346C3.179,-14.476 3.257,-14.567 3.362,-14.619C3.466,-14.671 3.557,-14.724 3.635,-14.776C3.87,-15.01 4.091,-15.167 4.3,-15.245C4.639,-15.375 4.938,-15.421 5.199,-15.382C5.459,-15.342 5.72,-15.284 5.981,-15.206C6.085,-15.049 6.163,-14.945 6.215,-14.893C6.267,-14.841 6.358,-14.632 6.489,-14.267C6.515,-14.215 6.541,-14.085 6.567,-13.877C6.593,-13.668 6.632,-13.538 6.684,-13.486C6.736,-13.381 6.801,-13.284 6.88,-13.193C6.958,-13.101 7.023,-13.004 7.075,-12.899C7.101,-12.821 7.069,-12.73 6.977,-12.626C6.886,-12.522 6.769,-12.437 6.626,-12.372C6.482,-12.307 6.345,-12.274 6.215,-12.274C6.085,-12.274 5.981,-12.326 5.902,-12.43C5.85,-12.508 5.792,-12.58 5.727,-12.645C5.661,-12.71 5.59,-12.808 5.512,-12.938Z" style="fill:rgb(255,253,247);fill-rule:nonzero;"/>
            <path d="M12.157,-14.697C11.974,-14.75 11.811,-14.886 11.668,-15.108C11.525,-15.329 11.453,-15.544 11.453,-15.753C11.453,-15.961 11.512,-16.111 11.629,-16.202C11.746,-16.294 11.896,-16.365 12.079,-16.417C12.339,-16.469 12.593,-16.541 12.841,-16.632C13.088,-16.724 13.355,-16.782 13.642,-16.808C13.851,-16.834 14.072,-16.815 14.307,-16.75C14.541,-16.684 14.776,-16.626 15.01,-16.574C15.219,-16.522 15.349,-16.411 15.401,-16.241C15.453,-16.072 15.492,-15.909 15.518,-15.753C15.544,-15.623 15.538,-15.486 15.499,-15.342C15.46,-15.199 15.388,-15.088 15.284,-15.01C15.075,-14.854 14.854,-14.704 14.619,-14.561C14.385,-14.417 14.111,-14.346 13.798,-14.346L12.157,-14.697ZM19.662,-7.271C19.74,-7.192 19.74,-7.121 19.662,-7.056C19.584,-6.99 19.518,-6.893 19.466,-6.762C19.258,-6.345 19.062,-5.922 18.88,-5.492C18.698,-5.062 18.476,-4.626 18.215,-4.183C18.137,-4.052 18.066,-3.896 18,-3.713C17.935,-3.531 17.864,-3.375 17.785,-3.244C17.525,-2.853 17.264,-2.476 17.004,-2.111C16.743,-1.746 16.43,-1.42 16.066,-1.134C15.961,-1.055 15.851,-0.932 15.733,-0.762C15.616,-0.593 15.492,-0.482 15.362,-0.43C15.154,-0.378 14.952,-0.326 14.756,-0.274C14.561,-0.222 14.359,-0.182 14.15,-0.156C13.916,-0.104 13.681,-0.085 13.447,-0.098C13.212,-0.111 12.965,-0.169 12.704,-0.274C12.313,-0.456 12,-0.697 11.766,-0.997C11.531,-1.296 11.349,-1.642 11.219,-2.033C11.166,-2.241 11.121,-2.45 11.082,-2.658C11.043,-2.867 10.997,-3.075 10.945,-3.283C10.815,-3.726 10.763,-4.15 10.789,-4.554C10.815,-4.958 10.802,-5.368 10.749,-5.785C10.723,-6.228 10.73,-6.671 10.769,-7.114C10.808,-7.557 10.854,-8 10.906,-8.443C10.932,-8.704 10.951,-8.958 10.964,-9.205C10.977,-9.453 11.01,-9.707 11.062,-9.968C11.088,-10.176 11.114,-10.372 11.14,-10.554C11.166,-10.736 11.206,-10.932 11.258,-11.14C11.284,-11.219 11.297,-11.297 11.297,-11.375C11.297,-11.453 11.31,-11.531 11.336,-11.609C11.492,-12.313 11.909,-12.665 12.587,-12.665C12.795,-12.665 13.01,-12.619 13.232,-12.528C13.453,-12.437 13.668,-12.352 13.877,-12.274C14.189,-12.144 14.43,-11.955 14.6,-11.707C14.769,-11.46 14.945,-11.219 15.127,-10.984C15.206,-10.854 15.245,-10.704 15.245,-10.534C15.245,-10.365 15.258,-10.202 15.284,-10.046L15.401,-9.577C15.427,-9.447 15.44,-9.31 15.44,-9.166C15.44,-9.023 15.44,-8.886 15.44,-8.756C15.44,-8.443 15.434,-8.131 15.421,-7.818C15.408,-7.505 15.388,-7.192 15.362,-6.88C15.362,-6.671 15.355,-6.469 15.342,-6.274C15.329,-6.078 15.31,-5.876 15.284,-5.668L15.284,-5.238C15.154,-4.743 15.062,-4.241 15.01,-3.733C14.958,-3.225 14.919,-2.71 14.893,-2.189C14.893,-2.111 14.899,-2.033 14.912,-1.954C14.925,-1.876 14.906,-1.811 14.854,-1.759C14.802,-1.707 14.743,-1.635 14.678,-1.544C14.613,-1.453 14.541,-1.407 14.463,-1.407C14.307,-1.381 14.209,-1.316 14.17,-1.212C14.131,-1.108 14.085,-0.99 14.033,-0.86C14.163,-0.912 14.274,-0.958 14.365,-0.997C14.456,-1.036 14.567,-1.068 14.697,-1.094C15.036,-1.147 15.31,-1.283 15.518,-1.505C15.727,-1.726 15.935,-1.941 16.144,-2.15C16.795,-2.827 17.342,-3.557 17.785,-4.339C18.229,-5.121 18.672,-5.928 19.115,-6.762C19.167,-6.867 19.206,-6.964 19.232,-7.056C19.258,-7.147 19.297,-7.258 19.349,-7.388C19.453,-7.336 19.512,-7.323 19.525,-7.349C19.538,-7.375 19.584,-7.349 19.662,-7.271ZM15.362,-0.43C15.44,-0.482 15.44,-0.489 15.362,-0.45C15.284,-0.41 15.284,-0.404 15.362,-0.43Z" style="fill:rgb(255,253,247);fill-rule:nonzero;"/>
            <path d="M17.277,8.951C17.303,8.743 17.342,8.417 17.395,7.974C17.447,7.531 17.512,7.062 17.59,6.567C17.668,6.072 17.733,5.603 17.785,5.16C17.838,4.717 17.877,4.391 17.903,4.183L18.02,2.541C18.046,2.254 18.059,1.954 18.059,1.642C18.059,1.329 18.072,1.029 18.098,0.743C18.124,0.534 18.144,0.326 18.157,0.117C18.17,-0.091 18.189,-0.3 18.215,-0.508C18.242,-0.612 18.255,-0.717 18.255,-0.821C18.255,-0.925 18.255,-1.029 18.255,-1.134L18.372,-2.541C18.372,-2.671 18.365,-2.795 18.352,-2.912C18.339,-3.029 18.346,-3.153 18.372,-3.283L18.372,-4.339C18.372,-4.521 18.365,-4.704 18.352,-4.886C18.339,-5.069 18.346,-5.251 18.372,-5.433C18.398,-5.72 18.424,-6 18.45,-6.274C18.476,-6.547 18.502,-6.828 18.528,-7.114C18.528,-7.166 18.522,-7.231 18.509,-7.31C18.496,-7.388 18.502,-7.453 18.528,-7.505C18.528,-7.635 18.535,-7.772 18.548,-7.916C18.561,-8.059 18.567,-8.196 18.567,-8.326C18.567,-8.587 18.574,-8.834 18.587,-9.069C18.6,-9.303 18.606,-9.551 18.606,-9.811L18.606,-9.89C18.658,-10.202 18.711,-10.515 18.763,-10.828C18.815,-11.14 18.854,-11.453 18.88,-11.766C18.932,-12.131 18.958,-12.482 18.958,-12.821C18.958,-13.16 18.971,-13.512 18.997,-13.877C18.997,-14.085 19.115,-14.228 19.349,-14.307C19.558,-14.385 19.746,-14.398 19.916,-14.346C20.085,-14.294 20.261,-14.228 20.444,-14.15C20.522,-14.098 20.593,-14.052 20.659,-14.013C20.724,-13.974 20.795,-13.929 20.874,-13.877C21.082,-13.668 21.284,-13.46 21.479,-13.251C21.675,-13.043 21.825,-12.795 21.929,-12.508C21.981,-12.378 22.014,-12.254 22.027,-12.137C22.04,-12.02 22.059,-11.896 22.085,-11.766C22.137,-11.427 22.17,-11.095 22.183,-10.769C22.196,-10.443 22.216,-10.124 22.242,-9.811C22.268,-9.629 22.287,-9.447 22.3,-9.264C22.313,-9.082 22.32,-8.886 22.32,-8.678C22.372,-8.73 22.418,-8.782 22.457,-8.834C22.496,-8.886 22.541,-8.938 22.593,-8.99C22.958,-9.355 23.31,-9.714 23.649,-10.065C23.988,-10.417 24.339,-10.763 24.704,-11.101C25.225,-11.622 25.786,-11.974 26.385,-12.157C26.776,-12.287 27.16,-12.352 27.538,-12.352C27.916,-12.352 28.287,-12.235 28.652,-12C28.861,-11.87 29.043,-11.727 29.199,-11.57C29.356,-11.414 29.525,-11.258 29.708,-11.101C29.942,-10.867 30.177,-10.632 30.411,-10.398C30.646,-10.163 30.88,-9.916 31.115,-9.655C31.245,-9.525 31.356,-9.388 31.447,-9.245C31.538,-9.101 31.61,-8.925 31.662,-8.717C31.688,-8.587 31.721,-8.469 31.76,-8.365C31.799,-8.261 31.845,-8.144 31.897,-8.013C32.652,-8.456 33.395,-8.919 34.125,-9.401C34.854,-9.883 35.519,-10.45 36.118,-11.101C36.17,-11.075 36.196,-11.062 36.196,-11.062L36.196,-11.023C36.066,-10.789 35.975,-10.632 35.923,-10.554C35.871,-10.476 35.753,-10.333 35.571,-10.124C35.441,-9.968 35.323,-9.85 35.219,-9.772C35.115,-9.694 34.998,-9.577 34.867,-9.42C34.789,-9.342 34.646,-9.232 34.437,-9.088C34.229,-8.945 34.073,-8.847 33.968,-8.795C33.604,-8.587 33.31,-8.391 33.089,-8.209C32.867,-8.026 32.574,-7.831 32.209,-7.622C32.105,-7.57 32.053,-7.479 32.053,-7.349C32.027,-7.036 32.007,-6.632 31.994,-6.137C31.981,-5.642 31.949,-5.238 31.897,-4.925C31.871,-4.743 31.838,-4.573 31.799,-4.417C31.76,-4.261 31.727,-4.091 31.701,-3.909C31.623,-3.544 31.486,-3.225 31.291,-2.951C31.095,-2.678 30.893,-2.397 30.685,-2.111C30.607,-2.033 30.515,-1.954 30.411,-1.876C30.307,-1.798 30.216,-1.72 30.138,-1.642C30.007,-1.511 29.884,-1.381 29.766,-1.251C29.649,-1.121 29.538,-0.99 29.434,-0.86C29.173,-0.469 28.783,-0.248 28.261,-0.195C28.131,-0.195 27.962,-0.169 27.753,-0.117C27.493,-0.065 27.258,-0.059 27.05,-0.098C26.841,-0.137 26.633,-0.248 26.424,-0.43C26.346,-0.482 26.248,-0.528 26.131,-0.567C26.014,-0.606 25.903,-0.638 25.799,-0.665C25.46,-0.717 25.128,-0.795 24.802,-0.899C24.476,-1.003 24.17,-1.147 23.883,-1.329C23.675,-1.459 23.525,-1.648 23.434,-1.896C23.343,-2.143 23.323,-2.371 23.375,-2.58C23.61,-3.596 24.235,-4.352 25.251,-4.847C25.434,-4.925 25.597,-5.029 25.74,-5.16C25.883,-5.29 26.046,-5.407 26.229,-5.512C26.541,-5.72 26.841,-5.902 27.128,-6.059C27.31,-6.163 27.454,-6.287 27.558,-6.43C27.662,-6.573 27.753,-6.749 27.831,-6.958C27.962,-7.323 28.059,-7.701 28.125,-8.091C28.19,-8.482 28.248,-8.86 28.3,-9.225C28.353,-9.668 28.287,-10.098 28.105,-10.515C28.053,-10.697 27.968,-10.86 27.851,-11.004C27.734,-11.147 27.623,-11.284 27.519,-11.414C27.44,-11.492 27.388,-11.531 27.362,-11.531C27.232,-11.479 27.089,-11.44 26.932,-11.414C26.776,-11.388 26.633,-11.336 26.502,-11.258C26.033,-10.893 25.564,-10.521 25.095,-10.144C24.626,-9.766 24.196,-9.355 23.805,-8.912C23.597,-8.678 23.401,-8.43 23.219,-8.17C23.036,-7.909 22.841,-7.648 22.633,-7.388C22.58,-7.284 22.567,-7.205 22.593,-7.153L22.75,-5.121C22.776,-4.912 22.789,-4.704 22.789,-4.495L22.789,-3.362C22.789,-3.205 22.776,-3.036 22.75,-2.853C22.75,-2.723 22.743,-2.593 22.73,-2.463C22.717,-2.332 22.711,-2.202 22.711,-2.072C22.711,-1.759 22.711,-1.446 22.711,-1.134C22.711,-0.821 22.698,-0.508 22.672,-0.195C22.646,0.195 22.626,0.586 22.613,0.977C22.6,1.368 22.567,1.759 22.515,2.15C22.489,2.332 22.463,2.508 22.437,2.678C22.411,2.847 22.385,3.036 22.359,3.244C22.359,3.297 22.365,3.362 22.378,3.44C22.391,3.518 22.385,3.583 22.359,3.635C22.333,3.818 22.281,4.117 22.203,4.534C22.124,4.951 22.04,5.401 21.948,5.883C21.857,6.365 21.766,6.815 21.675,7.231C21.584,7.648 21.512,7.948 21.46,8.131C21.46,8.235 21.408,8.339 21.304,8.443C20.939,8.73 20.561,8.938 20.17,9.069C19.779,9.199 19.336,9.199 18.841,9.069C18.632,9.017 18.404,8.99 18.157,8.99C17.909,8.99 17.668,8.99 17.434,8.99C17.434,8.964 17.382,8.951 17.277,8.951ZM26.424,-4.456C25.929,-4.3 25.519,-4.052 25.193,-3.713C24.867,-3.375 24.522,-3.036 24.157,-2.697C24.235,-2.697 24.313,-2.704 24.392,-2.717C24.47,-2.73 24.561,-2.736 24.665,-2.736C25.108,-2.71 25.46,-2.893 25.721,-3.283C25.825,-3.414 25.916,-3.538 25.994,-3.655C26.072,-3.772 26.151,-3.896 26.229,-4.026C26.281,-4.104 26.32,-4.176 26.346,-4.241C26.372,-4.306 26.398,-4.378 26.424,-4.456Z" style="fill:rgb(255,253,247);fill-rule:nonzero;"/>
            <g transform="matrix(1,0,0,1,34.242,0)">
                <path d="M-0.704,-4.534L-0.469,-5.824C-0.469,-5.928 -0.463,-6.026 -0.45,-6.117C-0.436,-6.209 -0.417,-6.319 -0.391,-6.45L-0.235,-6.762C-0.182,-7.049 -0.117,-7.31 -0.039,-7.544C0.039,-7.779 0.13,-8.013 0.235,-8.248C0.417,-8.717 0.651,-9.199 0.938,-9.694C1.016,-9.824 1.101,-9.961 1.192,-10.105C1.283,-10.248 1.368,-10.385 1.446,-10.515C1.498,-10.593 1.551,-10.671 1.603,-10.749C1.655,-10.828 1.707,-10.893 1.759,-10.945C1.837,-11.023 1.909,-11.108 1.974,-11.199C2.039,-11.29 2.111,-11.362 2.189,-11.414C2.345,-11.596 2.502,-11.772 2.658,-11.942C2.814,-12.111 2.984,-12.261 3.166,-12.391C3.297,-12.522 3.433,-12.619 3.577,-12.684C3.72,-12.75 3.857,-12.821 3.987,-12.899C4.091,-12.951 4.169,-13.004 4.222,-13.056C4.352,-13.212 4.502,-13.323 4.671,-13.388C4.841,-13.453 5.016,-13.512 5.199,-13.564C5.329,-13.616 5.459,-13.655 5.59,-13.681C5.72,-13.707 5.876,-13.694 6.059,-13.642C6.189,-13.616 6.313,-13.596 6.43,-13.583C6.547,-13.57 6.671,-13.525 6.801,-13.447C7.088,-13.238 7.284,-13.004 7.388,-12.743C7.414,-12.613 7.479,-12.443 7.583,-12.235C7.635,-12.105 7.694,-11.994 7.759,-11.903C7.824,-11.811 7.883,-11.701 7.935,-11.57C7.935,-11.544 7.942,-11.518 7.955,-11.492C7.968,-11.466 7.974,-11.44 7.974,-11.414C7.948,-11.284 7.929,-11.147 7.916,-11.004C7.902,-10.86 7.87,-10.723 7.818,-10.593C7.818,-10.411 7.779,-10.241 7.701,-10.085C7.701,-10.059 7.688,-10.033 7.661,-10.007C7.635,-9.981 7.609,-9.942 7.583,-9.89C7.531,-9.811 7.486,-9.733 7.446,-9.655C7.407,-9.577 7.362,-9.499 7.31,-9.42C7.231,-9.29 7.16,-9.16 7.095,-9.03C7.03,-8.899 6.958,-8.769 6.88,-8.639C6.88,-8.639 6.841,-8.6 6.762,-8.521C6.554,-8.417 6.424,-8.326 6.372,-8.248C6.007,-7.701 5.577,-7.231 5.082,-6.841C4.873,-6.658 4.658,-6.489 4.437,-6.332C4.215,-6.176 4,-6.007 3.792,-5.824C3.609,-5.694 3.427,-5.577 3.244,-5.472C3.062,-5.368 2.88,-5.251 2.697,-5.121C2.515,-5.042 2.397,-4.86 2.345,-4.573C2.267,-4.339 2.195,-4.091 2.13,-3.831C2.065,-3.57 2.007,-3.31 1.954,-3.049C1.902,-2.84 1.863,-2.639 1.837,-2.443C1.811,-2.248 1.746,-2.059 1.642,-1.876C1.642,-1.85 1.648,-1.824 1.661,-1.798C1.674,-1.772 1.681,-1.746 1.681,-1.72C1.863,-1.511 2.052,-1.329 2.248,-1.173C2.443,-1.016 2.697,-0.925 3.01,-0.899C3.218,-0.873 3.427,-0.873 3.635,-0.899C3.844,-0.925 4.052,-0.964 4.261,-1.016C4.469,-1.042 4.671,-1.108 4.867,-1.212C5.062,-1.316 5.251,-1.433 5.433,-1.564C5.642,-1.72 5.857,-1.863 6.078,-1.994C6.3,-2.124 6.515,-2.28 6.723,-2.463C7.036,-2.697 7.329,-2.945 7.603,-3.205C7.876,-3.466 8.117,-3.766 8.326,-4.104C8.482,-4.339 8.652,-4.573 8.834,-4.808C9.017,-5.042 9.186,-5.277 9.342,-5.512C9.603,-5.928 9.857,-6.345 10.105,-6.762C10.352,-7.179 10.606,-7.609 10.867,-8.052L11.336,-8.834C11.414,-8.912 11.492,-8.925 11.57,-8.873C11.675,-8.821 11.74,-8.73 11.766,-8.6C11.792,-8.469 11.779,-8.339 11.727,-8.209C11.675,-8 11.577,-7.844 11.434,-7.74C11.29,-7.635 11.153,-7.505 11.023,-7.349C10.893,-7.218 10.828,-7.049 10.828,-6.841C10.776,-6.684 10.723,-6.541 10.671,-6.411L10.437,-5.824C10.385,-5.694 10.319,-5.616 10.241,-5.59C10.111,-5.459 9.994,-5.336 9.89,-5.218C9.785,-5.101 9.707,-4.938 9.655,-4.73C9.629,-4.652 9.59,-4.58 9.538,-4.515C9.486,-4.45 9.433,-4.378 9.381,-4.3C9.251,-4.065 9.108,-3.837 8.951,-3.616C8.795,-3.394 8.613,-3.192 8.404,-3.01C8.3,-2.906 8.215,-2.801 8.15,-2.697C8.085,-2.593 8.026,-2.476 7.974,-2.345C7.844,-2.111 7.701,-1.896 7.544,-1.7C7.388,-1.505 7.205,-1.342 6.997,-1.212C6.867,-1.134 6.743,-1.062 6.626,-0.997C6.508,-0.932 6.385,-0.86 6.254,-0.782C6.15,-0.73 6.059,-0.671 5.981,-0.606C5.902,-0.541 5.811,-0.482 5.707,-0.43C5.577,-0.378 5.459,-0.339 5.355,-0.313C5.251,-0.287 5.134,-0.248 5.003,-0.195C4.795,-0.143 4.652,-0.117 4.573,-0.117C4.443,-0.091 4.326,-0.078 4.222,-0.078C4.117,-0.078 4,-0.065 3.87,-0.039C3.505,0.013 3.16,0 2.834,-0.078C2.508,-0.156 2.176,-0.261 1.837,-0.391C1.551,-0.521 1.29,-0.697 1.055,-0.919C0.821,-1.14 0.599,-1.381 0.391,-1.642C0.208,-1.85 0.039,-2.098 -0.117,-2.384C-0.274,-2.723 -0.41,-3.068 -0.528,-3.42C-0.645,-3.772 -0.691,-4.13 -0.665,-4.495C-0.691,-4.495 -0.704,-4.508 -0.704,-4.534ZM6.489,-11.336C6.437,-11.284 6.385,-11.245 6.332,-11.219C6.28,-11.192 6.228,-11.153 6.176,-11.101C6.046,-11.023 5.922,-10.945 5.805,-10.867C5.687,-10.789 5.564,-10.71 5.433,-10.632C5.381,-10.58 5.329,-10.548 5.277,-10.534C5.225,-10.521 5.186,-10.489 5.16,-10.437C5.029,-10.228 4.906,-10.033 4.788,-9.85C4.671,-9.668 4.547,-9.486 4.417,-9.303C4.365,-9.225 4.332,-9.153 4.319,-9.088C4.306,-9.023 4.274,-8.964 4.222,-8.912C4.169,-8.782 4.104,-8.671 4.026,-8.58C3.948,-8.489 3.883,-8.378 3.831,-8.248C3.779,-8.117 3.733,-7.981 3.694,-7.837C3.655,-7.694 3.609,-7.557 3.557,-7.427C3.375,-7.01 3.205,-6.554 3.049,-6.059C3.049,-6.059 3.101,-6.085 3.205,-6.137C3.414,-6.267 3.616,-6.398 3.811,-6.528C4.007,-6.658 4.196,-6.801 4.378,-6.958C4.639,-7.166 4.893,-7.388 5.14,-7.622C5.388,-7.857 5.629,-8.104 5.863,-8.365C6.15,-8.652 6.365,-8.977 6.508,-9.342C6.652,-9.707 6.788,-10.085 6.919,-10.476C6.971,-10.58 6.997,-10.678 6.997,-10.769C6.997,-10.86 7.01,-10.971 7.036,-11.101C6.775,-11.023 6.593,-11.101 6.489,-11.336Z" style="fill:rgb(255,253,247);fill-rule:nonzero;"/>
                <path d="M10.828,-20.483C11.192,-20.535 11.525,-20.593 11.824,-20.659C12.124,-20.724 12.417,-20.743 12.704,-20.717C13.59,-20.691 14.437,-20.431 15.245,-19.935C15.714,-19.701 15.987,-19.31 16.066,-18.763C16.144,-18.32 16.228,-17.883 16.32,-17.453C16.411,-17.023 16.509,-16.587 16.613,-16.144C16.665,-15.753 16.724,-15.362 16.789,-14.971C16.854,-14.58 16.939,-14.176 17.043,-13.759C17.121,-13.968 17.199,-14.189 17.277,-14.424C17.356,-14.658 17.447,-14.88 17.551,-15.088C18.046,-16.105 18.574,-17.095 19.134,-18.059C19.694,-19.023 20.444,-19.857 21.382,-20.561C21.825,-20.9 22.268,-21.219 22.711,-21.518C23.154,-21.818 23.61,-22.111 24.079,-22.398C24.548,-22.659 24.958,-22.737 25.31,-22.633C25.662,-22.528 26.02,-22.268 26.385,-21.851C26.88,-21.33 27.147,-20.763 27.186,-20.15C27.225,-19.538 27.193,-18.906 27.089,-18.255C27.037,-17.942 26.997,-17.636 26.971,-17.336C26.945,-17.036 26.906,-16.743 26.854,-16.456C26.776,-16.118 26.698,-15.772 26.62,-15.421C26.541,-15.069 26.424,-14.737 26.268,-14.424C26.085,-14.033 25.877,-13.649 25.642,-13.271C25.408,-12.893 25.173,-12.522 24.939,-12.157L24.939,-12.118C24.939,-12.092 24.932,-12.072 24.919,-12.059C24.906,-12.046 24.9,-12.013 24.9,-11.961C25.082,-11.961 25.251,-11.961 25.408,-11.961C25.564,-11.961 25.721,-11.948 25.877,-11.922C26.346,-11.87 26.822,-11.818 27.304,-11.766C27.786,-11.714 28.261,-11.622 28.73,-11.492C28.939,-11.44 29.121,-11.342 29.278,-11.199C29.434,-11.056 29.59,-10.919 29.747,-10.789C29.981,-10.554 30.209,-10.306 30.431,-10.046C30.652,-9.785 30.867,-9.525 31.076,-9.264C31.128,-9.212 31.167,-9.153 31.193,-9.088C31.219,-9.023 31.258,-8.964 31.31,-8.912L35.649,-9.968C35.649,-9.916 35.662,-9.876 35.688,-9.85C35.558,-9.668 35.395,-9.525 35.2,-9.42C35.004,-9.316 34.802,-9.225 34.594,-9.147C34.099,-8.938 33.61,-8.723 33.128,-8.502C32.646,-8.28 32.144,-8.065 31.623,-7.857C31.91,-7.258 32.033,-6.684 31.994,-6.137C31.955,-5.59 31.845,-5.042 31.662,-4.495C31.584,-4.235 31.519,-3.987 31.467,-3.753C31.415,-3.518 31.349,-3.27 31.271,-3.01C31.193,-2.671 31.115,-2.339 31.037,-2.013C30.958,-1.687 30.815,-1.368 30.607,-1.055C30.398,-0.769 30.229,-0.463 30.099,-0.137C29.968,0.189 29.799,0.508 29.59,0.821C29.173,1.42 28.717,2.033 28.222,2.658C27.936,3.023 27.649,3.375 27.362,3.713C27.076,4.052 26.789,4.391 26.502,4.73C26.216,5.042 25.923,5.362 25.623,5.687C25.323,6.013 25.017,6.319 24.704,6.606C24.522,6.788 24.339,6.951 24.157,7.095C23.975,7.238 23.779,7.375 23.571,7.505C23.362,7.635 23.134,7.733 22.887,7.798C22.639,7.863 22.398,7.948 22.163,8.052C22.137,8.078 22.111,8.085 22.085,8.072C22.059,8.059 22.033,8.065 22.007,8.091C20.991,8.613 20.066,8.443 19.232,7.583C19.154,7.505 19.069,7.427 18.978,7.349C18.887,7.271 18.802,7.179 18.724,7.075C18.515,6.788 18.404,6.489 18.391,6.176C18.378,5.863 18.359,5.564 18.333,5.277C18.281,4.886 18.268,4.489 18.294,4.085C18.32,3.681 18.398,3.283 18.528,2.893C18.737,2.267 18.997,1.668 19.31,1.094C19.883,0.104 20.528,-0.808 21.245,-1.642C21.962,-2.476 22.737,-3.27 23.571,-4.026C23.831,-4.235 24.098,-4.443 24.372,-4.652C24.646,-4.86 24.926,-5.056 25.212,-5.238C25.421,-5.368 25.558,-5.525 25.623,-5.707C25.688,-5.889 25.747,-6.085 25.799,-6.293C25.851,-6.815 25.838,-7.323 25.76,-7.818C25.681,-8.313 25.499,-8.782 25.212,-9.225C25.004,-9.564 24.717,-9.746 24.352,-9.772C24.092,-9.798 23.838,-9.831 23.59,-9.87C23.343,-9.909 23.089,-9.942 22.828,-9.968C22.698,-9.968 22.561,-9.961 22.418,-9.948C22.274,-9.935 22.137,-9.903 22.007,-9.85C21.668,-9.668 21.343,-9.486 21.03,-9.303C20.717,-9.121 20.391,-8.938 20.053,-8.756C19.844,-8.626 19.623,-8.528 19.388,-8.463C19.154,-8.398 18.919,-8.326 18.685,-8.248C18.424,-8.17 18.294,-8.013 18.294,-7.779C18.294,-7.31 18.294,-6.841 18.294,-6.372C18.294,-5.902 18.281,-5.433 18.255,-4.964C18.255,-4.834 18.235,-4.71 18.196,-4.593C18.157,-4.476 18.124,-4.352 18.098,-4.222C18.046,-3.909 17.994,-3.596 17.942,-3.283C17.89,-2.971 17.825,-2.658 17.746,-2.345C17.668,-1.981 17.408,-1.681 16.965,-1.446C16.626,-1.316 16.3,-1.199 15.987,-1.094C15.675,-0.99 15.336,-0.912 14.971,-0.86C14.684,-0.834 14.404,-0.749 14.131,-0.606C13.857,-0.463 13.577,-0.326 13.29,-0.195L12.899,0C12.613,0.052 12.437,0.046 12.372,-0.02C12.307,-0.085 12.287,-0.261 12.313,-0.547C12.339,-1.094 12.372,-1.642 12.411,-2.189C12.45,-2.736 12.469,-3.283 12.469,-3.831C12.495,-4.143 12.495,-4.456 12.469,-4.769C12.443,-5.082 12.417,-5.394 12.391,-5.707C12.391,-5.915 12.398,-6.124 12.411,-6.332C12.424,-6.541 12.43,-6.749 12.43,-6.958L12.548,-9.89C12.548,-10.437 12.541,-10.984 12.528,-11.531C12.515,-12.079 12.522,-12.626 12.548,-13.173C12.6,-14.163 12.658,-15.154 12.723,-16.144C12.789,-17.134 12.847,-18.124 12.899,-19.115C12.951,-19.558 12.795,-19.857 12.43,-20.014C12.326,-20.066 12.222,-20.079 12.118,-20.053C11.909,-20.001 11.707,-20.001 11.512,-20.053C11.316,-20.105 11.088,-20.248 10.828,-20.483ZM17.121,-12.352C17.173,-12.144 17.225,-11.922 17.277,-11.688C17.329,-11.453 17.395,-11.232 17.473,-11.023C17.499,-10.971 17.571,-10.932 17.688,-10.906C17.805,-10.88 17.89,-10.893 17.942,-10.945C18.619,-11.258 19.297,-11.596 19.974,-11.961C20.183,-12.092 20.391,-12.228 20.6,-12.372C20.808,-12.515 21.017,-12.678 21.225,-12.86C21.408,-12.991 21.577,-13.14 21.733,-13.31C21.89,-13.479 22.059,-13.642 22.242,-13.798C22.606,-14.137 22.952,-14.482 23.277,-14.834C23.603,-15.186 23.909,-15.57 24.196,-15.987C24.561,-16.535 24.835,-17.101 25.017,-17.688C25.199,-18.274 25.356,-18.893 25.486,-19.545C25.538,-19.935 25.551,-20.307 25.525,-20.659C25.499,-21.01 25.395,-21.369 25.212,-21.733C25.16,-21.838 25.108,-21.916 25.056,-21.968C25.004,-22.02 24.913,-22.007 24.782,-21.929C24.392,-21.72 24.001,-21.525 23.61,-21.343C23.219,-21.16 22.841,-20.952 22.476,-20.717C21.486,-20.092 20.691,-19.349 20.092,-18.489C19.883,-18.229 19.707,-17.955 19.564,-17.668C19.421,-17.382 19.245,-17.121 19.036,-16.886C18.489,-16.209 18.046,-15.505 17.707,-14.776C17.369,-14.046 17.173,-13.238 17.121,-12.352ZM25.447,-3.713C25.395,-3.74 25.369,-3.753 25.369,-3.753C25.082,-3.544 24.822,-3.323 24.587,-3.088C24.196,-2.645 23.792,-2.202 23.375,-1.759C22.958,-1.316 22.567,-0.873 22.203,-0.43C21.838,-0.013 21.518,0.423 21.245,0.88C20.971,1.336 20.743,1.824 20.561,2.345C20.431,2.71 20.307,3.082 20.189,3.459C20.072,3.837 19.896,4.183 19.662,4.495C19.505,4.704 19.382,4.938 19.29,5.199C19.199,5.459 19.023,5.655 18.763,5.785C18.737,5.785 18.724,5.818 18.724,5.883C18.724,5.948 18.737,5.994 18.763,6.02C18.893,6.072 19.023,6.13 19.154,6.196C19.284,6.261 19.427,6.241 19.584,6.137C19.792,6.007 20.001,5.883 20.209,5.766C20.417,5.648 20.639,5.538 20.874,5.433C21.16,5.329 21.388,5.173 21.558,4.964C21.727,4.756 21.89,4.547 22.046,4.339C22.307,4 22.548,3.642 22.769,3.264C22.991,2.886 23.206,2.515 23.414,2.15C23.701,1.681 23.962,1.199 24.196,0.704C24.431,0.208 24.613,-0.313 24.743,-0.86C24.822,-1.173 24.9,-1.479 24.978,-1.779C25.056,-2.078 25.134,-2.384 25.212,-2.697C25.265,-2.88 25.304,-3.049 25.33,-3.205C25.356,-3.362 25.395,-3.531 25.447,-3.713Z" style="fill:rgb(255,253,247);fill-rule:nonzero;"/>
                <path d="M43.623,-5.355C43.832,-5.538 44.04,-5.622 44.249,-5.609C44.457,-5.596 44.64,-5.681 44.796,-5.863C44.978,-6.098 45.193,-6.378 45.441,-6.704C45.689,-7.03 45.89,-7.323 46.047,-7.583C46.333,-8.026 46.581,-8.385 46.79,-8.658C46.998,-8.932 47.206,-9.303 47.415,-9.772L48.197,-11.492C48.249,-11.362 48.294,-11.284 48.334,-11.258C48.373,-11.232 48.366,-11.14 48.314,-10.984C48.027,-9.863 47.649,-8.893 47.18,-8.072C46.711,-7.251 46.229,-6.573 45.734,-6.039C45.239,-5.505 44.783,-5.101 44.366,-4.827C43.949,-4.554 43.675,-4.404 43.545,-4.378C43.389,-4.378 43.298,-4.313 43.272,-4.183C43.193,-3.87 43.076,-3.596 42.92,-3.362C42.659,-2.867 42.529,-2.332 42.529,-1.759C42.529,-1.264 42.281,-0.873 41.786,-0.586C41.526,-0.456 41.271,-0.371 41.024,-0.332C40.776,-0.293 40.509,-0.3 40.223,-0.352C40.04,-0.352 39.871,-0.371 39.714,-0.41C39.558,-0.45 39.389,-0.495 39.206,-0.547C38.998,-0.599 38.802,-0.658 38.62,-0.723C38.438,-0.788 38.242,-0.86 38.034,-0.938C37.877,-1.016 37.727,-1.101 37.584,-1.192C37.441,-1.283 37.291,-1.355 37.135,-1.407C36.77,-1.59 36.437,-1.805 36.138,-2.052C35.838,-2.3 35.545,-2.541 35.258,-2.775C34.633,-3.323 34.229,-3.922 34.047,-4.573C33.994,-4.782 33.962,-4.977 33.949,-5.16C33.936,-5.342 33.903,-5.525 33.851,-5.707C33.721,-6.072 33.682,-6.43 33.734,-6.782C33.786,-7.134 33.851,-7.492 33.929,-7.857C34.007,-8.144 34.118,-8.43 34.262,-8.717C34.405,-9.003 34.555,-9.29 34.711,-9.577C34.998,-10.124 35.349,-10.684 35.766,-11.258C35.949,-11.466 36.151,-11.668 36.372,-11.864C36.594,-12.059 36.848,-12.209 37.135,-12.313C37.239,-12.365 37.323,-12.424 37.389,-12.489C37.454,-12.554 37.525,-12.613 37.604,-12.665C37.812,-12.821 38.027,-12.906 38.249,-12.919C38.47,-12.932 38.698,-12.912 38.933,-12.86C39.167,-12.834 39.35,-12.763 39.48,-12.645C39.61,-12.528 39.74,-12.378 39.871,-12.196C39.949,-12.065 40.034,-11.929 40.125,-11.785C40.216,-11.642 40.301,-11.492 40.379,-11.336C40.457,-11.232 40.574,-11.206 40.731,-11.258C40.835,-11.31 40.946,-11.355 41.063,-11.394C41.18,-11.434 41.291,-11.44 41.395,-11.414C41.552,-11.362 41.708,-11.31 41.864,-11.258C42.021,-11.206 42.164,-11.101 42.294,-10.945C42.399,-10.841 42.496,-10.749 42.587,-10.671C42.679,-10.593 42.763,-10.502 42.842,-10.398C43.285,-9.824 43.48,-9.134 43.428,-8.326C43.428,-8.222 43.434,-8.131 43.447,-8.052C43.46,-7.974 43.48,-7.883 43.506,-7.779C43.532,-7.596 43.552,-7.414 43.565,-7.231C43.578,-7.049 43.597,-6.867 43.623,-6.684L43.623,-5.355ZM39.245,-8.482L39.128,-8.482C39.024,-8.326 38.913,-8.176 38.796,-8.033C38.679,-7.889 38.594,-7.727 38.542,-7.544C38.411,-7.231 38.307,-6.919 38.229,-6.606C38.151,-6.293 38.125,-5.955 38.151,-5.59C38.151,-5.459 38.151,-5.342 38.151,-5.238C38.151,-5.134 38.177,-5.016 38.229,-4.886C38.281,-4.73 38.314,-4.567 38.327,-4.398C38.34,-4.228 38.346,-4.052 38.346,-3.87C38.346,-3.74 38.359,-3.603 38.385,-3.459C38.411,-3.316 38.464,-3.205 38.542,-3.127C38.724,-2.893 38.946,-2.736 39.206,-2.658C39.467,-2.58 39.74,-2.515 40.027,-2.463C40.183,-2.437 40.327,-2.469 40.457,-2.56C40.587,-2.652 40.718,-2.749 40.848,-2.853C41.187,-3.114 41.486,-3.394 41.747,-3.694C42.008,-3.994 42.177,-4.365 42.255,-4.808C40.666,-5.564 39.662,-6.788 39.245,-8.482ZM42.333,-5.863L42.49,-5.863C42.516,-6.098 42.529,-6.332 42.529,-6.567C42.529,-6.801 42.529,-7.023 42.529,-7.231C42.555,-7.518 42.535,-7.785 42.47,-8.033C42.405,-8.28 42.359,-8.547 42.333,-8.834C42.281,-9.225 42.079,-9.57 41.728,-9.87C41.376,-10.17 41.056,-10.359 40.77,-10.437C40.692,-10.489 40.613,-10.476 40.535,-10.398C40.483,-10.267 40.431,-10.15 40.379,-10.046C40.327,-9.942 40.314,-9.824 40.34,-9.694C40.47,-9.199 40.705,-8.743 41.043,-8.326C41.122,-8.222 41.187,-8.117 41.239,-8.013C41.291,-7.935 41.337,-7.85 41.376,-7.759C41.415,-7.668 41.46,-7.583 41.513,-7.505C41.617,-7.323 41.714,-7.147 41.806,-6.977C41.897,-6.808 41.982,-6.632 42.06,-6.45C42.112,-6.345 42.157,-6.248 42.197,-6.157C42.236,-6.065 42.281,-5.968 42.333,-5.863Z" style="fill:rgb(255,253,247);fill-rule:nonzero;"/>
                <path d="M61.409,-7.583C61.539,-7.349 61.526,-7.088 61.37,-6.801C61.265,-6.619 61.181,-6.437 61.116,-6.254C61.051,-6.072 60.966,-5.889 60.862,-5.707C60.653,-5.316 60.406,-4.899 60.119,-4.456L59.884,-3.987C59.754,-3.7 59.604,-3.446 59.435,-3.225C59.265,-3.003 59.077,-2.775 58.868,-2.541C58.738,-2.384 58.614,-2.222 58.497,-2.052C58.379,-1.883 58.256,-1.72 58.125,-1.564C58.021,-1.459 57.923,-1.355 57.832,-1.251C57.741,-1.147 57.63,-1.042 57.5,-0.938C57.396,-0.834 57.291,-0.736 57.187,-0.645C57.083,-0.554 56.979,-0.456 56.874,-0.352C56.744,-0.222 56.594,-0.15 56.425,-0.137C56.256,-0.124 56.093,-0.143 55.936,-0.195C55.858,-0.248 55.78,-0.28 55.702,-0.293C55.624,-0.306 55.545,-0.339 55.467,-0.391C55.337,-0.365 55.22,-0.443 55.115,-0.625C55.011,-0.834 54.92,-1.042 54.842,-1.251C54.764,-1.459 54.672,-1.668 54.568,-1.876C54.542,-1.902 54.529,-1.922 54.529,-1.935C54.529,-1.948 54.516,-1.967 54.49,-1.994C54.334,-2.176 54.197,-2.371 54.08,-2.58C53.962,-2.788 53.839,-2.997 53.708,-3.205C53.526,-3.492 53.337,-3.772 53.141,-4.046C52.946,-4.319 52.744,-4.599 52.536,-4.886C52.483,-4.938 52.438,-5.003 52.399,-5.082C52.36,-5.16 52.314,-5.251 52.262,-5.355C52.054,-5.042 51.897,-4.795 51.793,-4.613C51.611,-4.326 51.48,-4.124 51.402,-4.007C51.324,-3.889 51.252,-3.792 51.187,-3.713C51.122,-3.635 51.037,-3.551 50.933,-3.459C50.829,-3.368 50.672,-3.218 50.464,-3.01C50.229,-2.775 50.001,-2.541 49.78,-2.306C49.558,-2.072 49.369,-1.811 49.213,-1.524C49.083,-1.264 48.939,-1.147 48.783,-1.173C48.679,-1.173 48.614,-1.199 48.588,-1.251C48.562,-1.277 48.588,-1.355 48.666,-1.485C48.796,-1.694 48.926,-1.909 49.057,-2.13C49.187,-2.352 49.317,-2.567 49.448,-2.775C49.552,-2.932 49.663,-3.075 49.78,-3.205C49.897,-3.336 50.008,-3.466 50.112,-3.596C50.19,-3.7 50.236,-3.766 50.249,-3.792C50.262,-3.818 50.268,-3.831 50.268,-3.831C50.268,-3.831 50.275,-3.844 50.288,-3.87C50.301,-3.896 50.347,-3.961 50.425,-4.065C50.711,-4.43 50.92,-4.691 51.05,-4.847C51.181,-5.003 51.389,-5.277 51.676,-5.668C51.754,-5.746 51.819,-5.837 51.871,-5.942C51.663,-6.332 51.474,-6.717 51.304,-7.095C51.135,-7.473 50.946,-7.844 50.738,-8.209C50.581,-8.574 50.425,-8.925 50.268,-9.264C50.112,-9.603 49.943,-9.955 49.76,-10.319C49.76,-10.346 49.734,-10.411 49.682,-10.515C49.682,-10.515 49.656,-10.541 49.604,-10.593C49.604,-10.619 49.578,-10.658 49.526,-10.71C49.239,-10.997 48.939,-10.932 48.627,-10.515C48.158,-9.968 47.728,-9.381 47.337,-8.756C47.102,-8.417 46.894,-8.078 46.711,-7.74C46.529,-7.401 46.333,-7.049 46.125,-6.684L45.304,-5.042C45.017,-5.042 44.894,-5.088 44.933,-5.179C44.972,-5.271 45.031,-5.42 45.109,-5.629C45.317,-6.228 45.565,-6.782 45.851,-7.29C46.138,-7.798 46.451,-8.3 46.79,-8.795C46.998,-9.108 47.206,-9.42 47.415,-9.733C47.623,-10.046 47.832,-10.346 48.04,-10.632C48.197,-10.841 48.353,-11.043 48.509,-11.238C48.666,-11.434 48.835,-11.609 49.018,-11.766C49.226,-11.922 49.395,-12.105 49.526,-12.313C49.656,-12.522 49.865,-12.6 50.151,-12.548C50.203,-12.522 50.268,-12.508 50.347,-12.508C50.425,-12.508 50.49,-12.495 50.542,-12.469C50.698,-12.443 50.848,-12.424 50.992,-12.411C51.135,-12.398 51.272,-12.352 51.402,-12.274C51.845,-11.961 52.216,-11.596 52.516,-11.179C52.816,-10.763 53.109,-10.319 53.396,-9.85C53.5,-9.72 53.591,-9.577 53.669,-9.42C53.747,-9.264 53.826,-9.121 53.904,-8.99C53.904,-8.964 53.93,-8.899 53.982,-8.795C54.164,-9.003 54.334,-9.212 54.49,-9.42C54.646,-9.629 54.803,-9.837 54.959,-10.046C55.142,-10.28 55.298,-10.476 55.428,-10.632C55.611,-10.919 55.747,-11.14 55.839,-11.297C55.93,-11.453 56.054,-11.688 56.21,-12C56.34,-12.235 56.471,-12.476 56.601,-12.723C56.731,-12.971 56.861,-13.225 56.992,-13.486C57.044,-13.642 57.109,-13.798 57.187,-13.955C57.265,-14.111 57.344,-14.267 57.422,-14.424C57.422,-14.476 57.474,-14.502 57.578,-14.502C57.708,-14.398 57.761,-14.3 57.734,-14.209C57.708,-14.118 57.695,-13.981 57.695,-13.798C57.695,-13.616 57.617,-13.447 57.461,-13.29C57.331,-13.16 57.22,-13.004 57.129,-12.821C57.037,-12.639 56.94,-12.456 56.835,-12.274C56.731,-12.065 56.627,-11.844 56.523,-11.609C56.445,-11.401 56.392,-11.271 56.366,-11.219C56.34,-11.166 56.249,-11.049 56.093,-10.867C55.91,-10.684 55.78,-10.489 55.702,-10.28L55.272,-9.499C55.168,-9.368 55.115,-9.303 55.115,-9.303C55.115,-9.303 55.063,-9.238 54.959,-9.108C54.855,-8.977 54.757,-8.854 54.666,-8.736C54.575,-8.619 54.477,-8.495 54.373,-8.365C54.321,-8.235 54.308,-8.117 54.334,-8.013C54.412,-7.701 54.581,-7.388 54.842,-7.075C54.868,-7.049 54.887,-7.023 54.901,-6.997C54.914,-6.971 54.933,-6.945 54.959,-6.919C55.168,-6.658 55.415,-6.352 55.702,-6C55.988,-5.648 56.236,-5.355 56.445,-5.121C56.653,-4.912 56.816,-4.684 56.933,-4.437C57.05,-4.189 57.174,-3.935 57.304,-3.674C57.357,-3.622 57.389,-3.564 57.402,-3.498C57.415,-3.433 57.448,-3.362 57.5,-3.283C57.63,-2.919 57.8,-2.73 58.008,-2.717C58.217,-2.704 58.373,-2.762 58.477,-2.893C58.555,-2.971 58.627,-3.049 58.692,-3.127C58.757,-3.205 58.829,-3.297 58.907,-3.401C59.037,-3.583 59.168,-3.792 59.298,-4.026C59.715,-4.626 60.093,-5.199 60.432,-5.746C60.614,-6.033 60.79,-6.313 60.959,-6.586C61.129,-6.86 61.265,-7.166 61.37,-7.505C61.37,-7.505 61.383,-7.531 61.409,-7.583Z" style="fill:rgb(255,253,247);fill-rule:nonzero;"/>
            </g>
        </g>
    </g>
</svg>
